<svg width="81" height="51" viewBox="0 0 81 51" fill="none" xmlns="http://www.w3.org/2000/svg">
<path d="M14.6245 15.4929C14.6245 15.4929 14.6245 11.7618 14.6245 9.8464C14.6245 7.93097 12.7321 6.18638 11.2713 6.6263C9.81054 7.06623 3.69876 8.93933 3.44674 9.05272C3.19322 9.16761 0 10.4058 0 13.9055L0.0467816 36.676C0.0467816 36.676 0.185617 38.9618 2.56242 38.915C2.56242 38.915 3.26113 38.915 4.37936 38.3087C4.37936 38.3087 7.13192 36.803 7.31301 36.7229C7.49561 36.6427 8.9896 36.162 9.03639 38.2165V51.0017L13.5546 49.5549C13.5546 49.5549 13.5546 38.5839 13.5546 38.2165C13.5546 37.447 14.1069 33.6358 16.0702 32.0575C16.1909 31.9562 17.1341 31.3424 17.9792 32.4763C18.8243 33.6101 19.5637 33.7825 19.5637 33.7825C19.5637 33.7825 20.4752 34.1846 21.2871 32.8028C21.3354 32.7076 22.76 30.3462 22.8234 30.2373C22.8883 30.1285 23.101 29.817 23.7092 29.8639C23.7092 29.8639 25.1987 29.7702 24.9663 31.8716C24.9663 31.8716 31.8945 29.7656 32.4649 29.4452C32.5554 29.4089 35.2009 28.3461 36.796 25.8985C36.796 25.8985 37.2713 25.1955 37.8674 25.2454C37.9761 25.2454 39.4504 25.3391 39.0309 27.2984C39.0309 27.2984 45.7403 25.2409 46.11 25.058C46.9098 24.7284 48.9999 23.8606 48.9516 21.4191C48.9743 20.698 48.7811 19.4326 47.7398 18.5255C47.681 18.4666 43.1235 15.1014 43.0828 15.0726C42.6859 14.7325 42.4792 13.969 43.1296 13.1587C43.1296 13.1587 43.6412 12.4119 44.3866 12.4588C44.3866 12.4588 44.9556 12.4316 45.8293 13.579C45.9455 13.6954 46.5929 14.5586 47.0396 14.6524C47.0396 14.6524 47.4139 14.7718 47.8772 14.3258C49.0105 13.3401 49.6005 13.2993 49.6005 13.2993C49.6005 13.2993 51.2303 12.8322 51.2303 14.6992C51.2303 14.6992 51.2303 18.2519 51.2303 18.6193C51.2303 19.478 52.3561 22.1039 54.9095 21.9785C54.9095 21.9785 55.7953 21.8847 56.6328 21.6519L59.3809 20.766C59.3809 20.766 62.8307 19.7259 64.0379 17.5006C64.0379 17.5006 64.6099 16.3803 65.4353 16.3803C65.4353 16.3803 66.8795 16.1944 66.7392 18.3865L70.6507 17.0803V7.60745C70.6507 7.60745 70.5421 6.48722 71.861 6.48722C73.1618 6.48722 73.1181 7.51372 73.1181 7.51372C73.1181 7.51372 73.1181 26.7058 73.1181 27.111C73.1181 27.6628 73.696 29.3741 75.5869 29.3514C75.5869 29.3514 80.8974 29.3061 80.8974 24.7783C80.8974 24.4396 80.8974 23.0518 80.8974 23.0518L79.5468 23.519V25.1517C79.5468 25.1517 79.6328 26.2538 78.3817 26.3188C78.2686 26.3415 77.0341 26.2976 77.0779 25.1063V1.1219C77.0779 1.1219 76.9843 0.00167343 75.8661 0.00167343C75.8661 0.00167343 74.8414 -0.0920572 74.0492 1.30785C73.2569 2.70776 72.9777 3.78113 71.9063 3.78113C71.9063 3.78113 70.6326 3.9308 70.6492 2.80149V1.58753L66.6441 2.89371C66.6441 2.89371 66.6441 7.34591 66.6441 7.51372C66.6441 8.65814 65.7839 14.353 64.2673 14.3727C64.1617 14.3878 62.7386 14.5858 62.6843 13.1587C62.6843 13.1587 62.6813 8.27717 62.6843 7.7934C62.722 7.06774 62.1606 4.9059 60.3558 5.13417L58.7259 5.46072C58.7259 5.46072 58.7259 16.719 58.7259 17.0788C58.7259 17.4386 58.5977 19.1484 56.6766 19.224C56.5016 19.2527 54.6273 19.1771 54.6273 17.3569V9.79802C54.6273 9.79802 54.5337 8.44498 55.8843 8.35125L55.9311 6.39198C55.9311 6.39198 51.834 7.32475 49.922 10.7777C49.6941 11.0241 49.2187 11.2448 48.8973 11.2448C48.7011 11.2448 47.7791 11.1889 47.7323 10.2652C47.7353 10.0475 47.7323 9.00434 47.7323 9.00434L40.9867 11.2463C40.9867 11.2463 38.3322 12.0854 38.3322 14.793C38.3322 14.793 38.3307 16.6615 39.4957 17.5459L44.201 21.0926C44.201 21.0926 45.0084 21.6655 44.6205 22.6331C44.5692 22.7978 44.0169 23.9135 42.8972 23.9392C42.6799 23.9649 41.9646 23.9392 41.5466 22.8659C41.5466 22.8659 41.1738 21.466 39.9635 21.8862C39.9635 21.8862 37.6999 22.6799 37.5414 22.7268C37.383 22.7737 36.0505 23.0065 36.0505 21.4206C36.0505 21.4206 36.0505 16.5814 36.0505 16.1944C36.0505 15.8074 35.5706 13.5941 33.722 13.6742C33.722 13.6742 32.6505 13.768 31.7194 14.1882V16.4741C31.7194 16.4741 32.9765 16.2881 32.9765 17.9208V25.8063C32.9765 25.8063 33.0353 27.7777 30.9739 27.8124C29.2566 27.7943 28.9714 26.1464 28.9714 25.9454C28.9548 24.8282 29.0181 0.795359 29.0181 0.795359L24.9195 2.38273L24.9663 19.6004C24.9663 19.6004 24.7188 25.1925 23.1493 27.3453C22.6921 27.9666 21.1045 27.9666 20.9596 26.5985V17.7334L16.9545 18.9927C16.9545 18.9927 16.9545 21.9845 16.9545 22.5847C16.9545 23.1864 16.3977 30.3159 14.3529 30.2116C14.0933 30.2177 13.544 29.9319 13.538 28.7074L13.5636 20.0222L9.64153 21.4176C9.64153 21.4176 9.6038 26.1948 9.59475 26.4564C9.47402 27.9893 9.68982 34.9012 5.12333 34.9012C5.12333 34.9012 4.00511 34.948 4.00511 33.595V14.2805C4.00511 14.2805 4.13338 12.0974 5.82204 11.3416C5.82204 11.3416 7.55145 10.7247 7.91816 10.5947C8.28335 10.4647 9.68831 10.5947 9.68831 12.1352V17.0334L14.6245 15.4929Z" fill="white"/>
</svg>
